<?xml version="1.0" encoding="UTF-8"?>
<svg version="1.1" xmlns="http://www.w3.org/2000/svg" width="80" height="80">
<path d="M0 0 C26.4 0 52.8 0 80 0 C80 26.4 80 52.8 80 80 C53.6 80 27.2 80 0 80 C0 53.6 0 27.2 0 0 Z " fill="#F9F9F9" transform="translate(0,0)"/>
<path d="M0 0 C1.890625 0.30859375 1.890625 0.30859375 4 1 C5.58211573 1.06548492 7.16670081 1.08578381 8.75 1.0625 C9.94882812 1.04896484 9.94882812 1.04896484 11.171875 1.03515625 C12.07679687 1.01775391 12.07679687 1.01775391 13 1 C12.67 1.66 12.34 2.32 12 3 C9.93359375 3.4140625 9.93359375 3.4140625 7.4375 3.625 C6.61121094 3.69976562 5.78492188 3.77453125 4.93359375 3.8515625 C3.97646484 3.92503906 3.97646484 3.92503906 3 4 C2.61781233 5.65614657 2.28604898 7.32457024 2 9 C4.61887463 11.61887463 11.32359374 10.54655783 14.83349609 10.61132812 C20.02620284 10.5359976 20.02620284 10.5359976 24.55859375 8.21484375 C25.98974094 6.19125159 27.03513477 4.27505065 28 2 C28.33 2 28.66 2 29 2 C29 8.6 29 15.2 29 22 C35.6 22 42.2 22 49 22 C49 15.4 49 8.8 49 2 C53 6 53 6 54.15234375 8.23046875 C56.86442635 10.82787555 59.27255508 10.43683626 62.91992188 10.40039062 C63.79197266 10.37138672 64.66402344 10.34238281 65.5625 10.3125 C66.43841797 10.30283203 67.31433594 10.29316406 68.21679688 10.28320312 C72.76224415 10.33546777 72.76224415 10.33546777 77 9 C77 17.58 77 26.16 77 35 C50.6 35 24.2 35 -3 35 C-3 24.44 -3 13.88 -3 3 C-2.01 2.01 -1.02 1.02 0 0 Z " fill="#FCFCFC" transform="translate(3,45)"/>
<path d="M0 0 C4.1265693 0.099965 7.06548518 0.17925356 10.70141602 2.22509766 C12.48250676 4.29907887 13.6629334 6.21195788 14.89672852 8.64697266 C16.45804078 11.94206643 16.45804078 11.94206643 18.89672852 14.64697266 C21.72534875 15.24550991 23.76673205 15.4889612 26.58422852 15.45947266 C33.83815709 15.58840123 33.83815709 15.58840123 34.89672852 16.64697266 C35.02172852 19.14697266 35.02172852 19.14697266 34.89672852 21.64697266 C32.64527038 23.89843079 27.60490126 22.97328782 24.58422852 23.02197266 C23.28195313 23.07804687 23.28195313 23.07804687 21.95336914 23.13525391 C15.50974273 23.22426793 15.50974273 23.22426793 12.41625977 20.31103516 C11.91481445 19.43189453 11.41336914 18.55275391 10.89672852 17.64697266 C10.23672852 16.65697266 9.57672852 15.66697266 8.89672852 14.64697266 C8.56672852 20.91697266 8.23672852 27.18697266 7.89672852 33.64697266 C1.29672852 33.64697266 -5.30327148 33.64697266 -12.10327148 33.64697266 C-12.59827148 24.24197266 -12.59827148 24.24197266 -13.10327148 14.64697266 C-13.70139648 15.96697266 -14.29952148 17.28697266 -14.91577148 18.64697266 C-16.74530214 21.17879258 -18.11189168 22.454414 -21.2199707 23.05810547 C-26.72550858 23.48745155 -32.65855175 23.67441196 -38.10327148 22.64697266 C-38.76327148 21.98697266 -39.42327148 21.32697266 -40.10327148 20.64697266 C-39.77327148 18.99697266 -39.44327148 17.34697266 -39.10327148 15.64697266 C-33.49327148 15.64697266 -27.88327148 15.64697266 -22.10327148 15.64697266 C-21.77327148 14.32697266 -21.44327148 13.00697266 -21.10327148 11.64697266 C-20.18069334 10.07078959 -19.19680296 8.52944656 -18.16577148 7.02197266 C-17.64112305 6.24595703 -17.11647461 5.46994141 -16.57592773 4.67041016 C-12.31679728 -1.18165769 -6.75184711 0.05088054 0 0 Z " fill="#060606" transform="translate(44.103271484375,33.35302734375)"/>
<path d="M0 0 C3.33182674 0.03578334 5.5737473 0.07461713 8.4765625 1.74609375 C10.90217892 4.23493714 12.1157338 6.31530352 12.6875 9.7578125 C12.56650235 14.21960091 11.40946398 16.96473871 8.1875 20.0625 C5.44483729 22.08577577 4.18288285 22.52011301 0.6875 23.0625 C-4.02412933 22.27722845 -6.5020573 20.97158404 -9.5 17.25 C-11.03775658 13.6888795 -11.16040668 11.35081154 -10.6875 7.5 C-7.42322173 1.81383786 -6.43862054 0.3167833 0 0 Z " fill="#141414" transform="translate(11.6875,23.5)"/>
<path d="M0 0 C2.5 0.9375 2.5 0.9375 4 3 C4.62146539 6.12508309 4.64812539 8.8777264 4 12 C1.4323911 15.09623426 -0.11369394 15.85529697 -4.0625 16.5 C-7 16 -7 16 -9.375 14.5625 C-11.70069294 10.89506113 -11.86672198 7.23991022 -11 3 C-8.13821532 -0.91750403 -4.48900815 -0.62322246 0 0 Z " fill="#0C0C0C" transform="translate(45,16)"/>
<path d="M0 0 C3 1 3 1 4 3 C4.17199251 6.80626901 4.04130648 10.51630842 1.8046875 13.703125 C-0.86530574 16.13547487 -2.79227501 16.9807662 -6.375 17.3125 C-7.24125 17.209375 -8.1075 17.10625 -9 17 C-8.34 16.67 -7.68 16.34 -7 16 C-6.34444881 13.47266765 -6.34444881 13.47266765 -6 11 C-5.34 11 -4.68 11 -4 11 C-4.474375 10.21625 -4.94875 9.4325 -5.4375 8.625 C-6.33898023 7.11051322 -7.21179485 5.5764103 -8 4 C-7.01 4 -6.02 4 -5 4 C-4.67 3.34 -4.34 2.68 -4 2 C-3.01 2 -2.02 2 -1 2 C-0.67 1.34 -0.34 0.68 0 0 Z " fill="#111111" transform="translate(20,28)"/>
<path d="M0 0 C1.06992188 -0.03738281 2.13984375 -0.07476563 3.2421875 -0.11328125 C6.125 0.3125 6.125 0.3125 8.0078125 2.33203125 C8.37648438 2.98558594 8.74515625 3.63914062 9.125 4.3125 C7.83534824 5.68812854 6.49810707 7.02016393 5.125 8.3125 C4.465 8.3125 3.805 8.3125 3.125 8.3125 C2.135 8.8075 2.135 8.8075 1.125 9.3125 C1.62 9.745625 2.115 10.17875 2.625 10.625 C4.125 12.3125 4.125 12.3125 4.125 15.3125 C2.125 17 2.125 17 0.125 18.3125 C-0.865 17.6525 -1.855 16.9925 -2.875 16.3125 C-2.875 15.6525 -2.875 14.9925 -2.875 14.3125 C-1.555 14.3125 -0.235 14.3125 1.125 14.3125 C1.125 13.6525 1.125 12.9925 1.125 12.3125 C-0.195 11.9825 -1.515 11.6525 -2.875 11.3125 C-4 4.5625 -4 4.5625 -2.875 2.3125 C-4.195 1.9825 -5.515 1.6525 -6.875 1.3125 C-5.06850099 -0.49399901 -2.43748958 0.05553034 0 0 Z " fill="#1C1C1C" transform="translate(11.875,23.6875)"/>
<path d="M0 0 C1.34384766 -0.03867187 1.34384766 -0.03867187 2.71484375 -0.078125 C3.48957031 0.03015625 4.26429687 0.1384375 5.0625 0.25 C7.37611802 3.72042703 7.57270728 5.16834173 7.0625 9.25 C5.25 11.1875 5.25 11.1875 3.0625 12.25 C2.0725 11.92 1.0825 11.59 0.0625 11.25 C0.7225 9.6 1.3825 7.95 2.0625 6.25 C1.4025 6.25 0.7425 6.25 0.0625 6.25 C0.3925 5.26 0.7225 4.27 1.0625 3.25 C0.4025 3.25 -0.2575 3.25 -0.9375 3.25 C-1.9275 5.89 -2.9175 8.53 -3.9375 11.25 C-4.9275 10.26 -5.9175 9.27 -6.9375 8.25 C-6.37610518 0.10977513 -6.37610518 0.10977513 0 0 Z " fill="#1C1C1C" transform="translate(69.9375,32.75)"/>
<path d="M0 0 C0.99 0.33 1.98 0.66 3 1 C2.01 1.495 2.01 1.495 1 2 C1 2.66 1 3.32 1 4 C1.66 4 2.32 4 3 4 C2.79375 4.78375 2.5875 5.5675 2.375 6.375 C2.25125 7.24125 2.1275 8.1075 2 9 C2.66 9.66 3.32 10.32 4 11 C3.67 11.33 3.34 11.66 3 12 C4.65 12.33 6.3 12.66 8 13 C8 13.33 8 13.66 8 14 C5.70890403 14.08075665 3.41700733 14.13907731 1.125 14.1875 C-0.15117188 14.22230469 -1.42734375 14.25710937 -2.7421875 14.29296875 C-3.81726563 14.19628906 -4.89234375 14.09960938 -6 14 C-6.66 13.01 -7.32 12.02 -8 11 C-7.34 11 -6.68 11 -6 11 C-5.67 10.01 -5.34 9.02 -5 8 C-4.525625 7.54625 -4.05125 7.0925 -3.5625 6.625 C-1.62907486 4.61423786 -0.9168436 2.60947795 0 0 Z " fill="#D3D3D3" transform="translate(69,35)"/>
<path d="M0 0 C0.66 0.33 1.32 0.66 2 1 C1.05468332 5.41811165 -0.93344005 9.00020655 -3 13 C-8.28 13 -13.56 13 -19 13 C-19 12.67 -19 12.34 -19 12 C-18.40832031 11.98582031 -17.81664062 11.97164062 -17.20703125 11.95703125 C-12.92369246 11.69849367 -10.61857532 11.49486026 -7.1875 8.75 C-6.465625 7.8425 -5.74375 6.935 -5 6 C-3.88625 4.63875 -3.88625 4.63875 -2.75 3.25 C-1.88375 2.13625 -1.88375 2.13625 -1 1 C-0.67 0.67 -0.34 0.34 0 0 Z " fill="#D6D6D6" transform="translate(25,36)"/>
<path d="M0 0 C2.0625 0.4375 2.0625 0.4375 4 1 C4 1.66 4 2.32 4 3 C3.01 3.495 3.01 3.495 2 4 C2.495 4.433125 2.99 4.86625 3.5 5.3125 C5 7 5 7 5 10 C3 11.6875 3 11.6875 1 13 C0.01 12.34 -0.98 11.68 -2 11 C-2 10.34 -2 9.68 -2 9 C-0.68 9 0.64 9 2 9 C2 8.34 2 7.68 2 7 C0.68 6.67 -0.64 6.34 -2 6 C-1.125 1.125 -1.125 1.125 0 0 Z " fill="#CDCDCD" transform="translate(11,29)"/>
<path d="M0 0 C1.32 0.33 2.64 0.66 4 1 C4.042721 2.66611905 4.04063832 4.33382885 4 6 C3 7 3 7 1.14233398 7.11352539 C0.35157471 7.10828857 -0.43918457 7.10305176 -1.25390625 7.09765625 C-2.10791016 7.09443359 -2.96191406 7.09121094 -3.84179688 7.08789062 C-4.73962891 7.07951172 -5.63746094 7.07113281 -6.5625 7.0625 C-7.46419922 7.05798828 -8.36589844 7.05347656 -9.29492188 7.04882812 C-11.53001314 7.03700225 -13.76497437 7.0205222 -16 7 C-16 6.67 -16 6.34 -16 6 C-14.41058594 5.90912109 -14.41058594 5.90912109 -12.7890625 5.81640625 C-11.40102779 5.73199873 -10.01300768 5.64735083 -8.625 5.5625 C-7.92632812 5.52318359 -7.22765625 5.48386719 -6.5078125 5.44335938 C-2.62639508 5.25719866 -2.62639508 5.25719866 1 4 C0.34 3.67 -0.32 3.34 -1 3 C-0.67 2.01 -0.34 1.02 0 0 Z " fill="#262626" transform="translate(75,49)"/>
<path d="M0 0 C0.99 0.33 1.98 0.66 3 1 C2.01 1.495 2.01 1.495 1 2 C1 2.66 1 3.32 1 4 C1.66 4 2.32 4 3 4 C2.79375 4.78375 2.5875 5.5675 2.375 6.375 C2.25125 7.24125 2.1275 8.1075 2 9 C2.66 9.66 3.32 10.32 4 11 C1.69 10.67 -0.62 10.34 -3 10 C-2.69201674 8.51988629 -2.378482 7.04092675 -2.0625 5.5625 C-1.88847656 4.73878906 -1.71445313 3.91507813 -1.53515625 3.06640625 C-1 1 -1 1 0 0 Z " fill="#303030" transform="translate(69,35)"/>
<path d="M0 0 C2.97 0 5.94 0 9 0 C8.67 1.65 8.34 3.3 8 5 C5.69 5 3.38 5 1 5 C0.67 3.35 0.34 1.7 0 0 Z " fill="#080808" transform="translate(8,17)"/>
<path d="M0 0 C0.66 0.33 1.32 0.66 2 1 C1.25 7.75 1.25 7.75 -1 10 C-3.1387261 6.79191085 -3.47730962 5.72301503 -3 2 C-2.01 1.34 -1.02 0.68 0 0 Z " fill="#0B0B0B" transform="translate(66,34)"/>
<path d="M0 0 C6.75 2.75 6.75 2.75 9 5 C6.50935112 5.68707555 4.62113708 6 2 6 C1.01 6.495 1.01 6.495 0 7 C0 4.69 0 2.38 0 0 Z " fill="#F7F7F7" transform="translate(0,41)"/>
<path d="M0 0 C0.99 0.33 1.98 0.66 3 1 C2.01 1.495 2.01 1.495 1 2 C1 2.66 1 3.32 1 4 C1.66 4 2.32 4 3 4 C2.67 5.32 2.34 6.64 2 8 C1.01 7.67 0.02 7.34 -1 7 C-1 4.37886292 -0.68707555 2.49064888 0 0 Z " fill="#C5C5C5" transform="translate(69,35)"/>
<path d="M0 0 C0.66 0.33 1.32 0.66 2 1 C2 1.99 2 2.98 2 4 C0 5.6875 0 5.6875 -2 7 C-2.99 6.34 -3.98 5.68 -5 5 C-5 4.34 -5 3.68 -5 3 C-3.35 3 -1.7 3 0 3 C0 2.01 0 1.02 0 0 Z " fill="#D9D9D9" transform="translate(14,35)"/>
<path d="M0 0 C1.98 0 3.96 0 6 0 C5.67 0.99 5.34 1.98 5 3 C3.35 3 1.7 3 0 3 C0 2.01 0 1.02 0 0 Z " fill="#242424" transform="translate(67,28)"/>
</svg>
